<svg xmlns="http://www.w3.org/2000/svg" xmlns:xlink="http://www.w3.org/1999/xlink" width="1166" zoomAndPan="magnify" viewBox="0 0 874.5 363.749991" height="485" preserveAspectRatio="xMidYMid meet" version="1.0"><defs><g/><clipPath id="865e278453"><path d="M 88 85 L 228.644531 85 L 228.644531 283.210938 L 88 283.210938 Z M 88 85 " clip-rule="nonzero"/></clipPath><clipPath id="56c8f49605"><path d="M 0.0507812 56.113281 L 117 56.113281 L 117 257 L 0.0507812 257 Z M 0.0507812 56.113281 " clip-rule="nonzero"/></clipPath></defs><g clip-path="url(#865e278453)"><path fill="#005094" d="M 145.058594 85.097656 L 228.605469 85.097656 L 171.46875 184.152344 L 114.34375 283.195312 L 88.554688 239.660156 L 153.511719 124.78125 L 128.238281 124.769531 " fill-opacity="1" fill-rule="evenodd"/></g><g clip-path="url(#56c8f49605)"><path fill="#e77925" d="M 87.71875 85.097656 L 109.121094 56.105469 L 71.039062 152.351562 L 116.566406 152.328125 L 76.230469 255.089844 L 75.382812 256.550781 L 78.65625 221.097656 L 57.214844 184.152344 L 0.0859375 85.097656 " fill-opacity="1" fill-rule="evenodd"/></g><g fill="#38b6ff" fill-opacity="1"><g transform="translate(241.831008, 239.049679)"><g><path d="M 107.515625 -89.792969 C 101.101562 -90.128906 95.699219 -88.441406 91.816406 -82.703125 C 89.792969 -79.664062 88.105469 -75.613281 86.753906 -72.40625 C 82.871094 -62.957031 78.820312 -53.671875 75.109375 -44.222656 L 70.382812 -33.082031 C 60.761719 -51.480469 54.855469 -70.550781 45.570312 -88.613281 C 43.207031 -89.117188 5.230469 -88.78125 3.375 -87.9375 C 3.039062 -86.417969 3.714844 -84.390625 4.386719 -83.210938 L 6.75 -78.316406 C 15.023438 -62.617188 21.941406 -46.246094 29.367188 -30.042969 C 34.261719 -19.917969 39.496094 -10.464844 44.390625 -0.335938 C 46.414062 1.011719 48.945312 0.507812 51.308594 0.675781 C 55.191406 1.011719 59.242188 0.507812 63.292969 0.507812 C 67.175781 0.507812 70.890625 0.84375 74.601562 0.167969 C 75.613281 -1.011719 76.457031 -2.363281 76.964844 -3.542969 C 78.316406 -7.59375 79.835938 -11.140625 81.355469 -15.023438 C 84.390625 -22.617188 87.597656 -30.042969 90.636719 -37.640625 C 94.519531 -46.921875 98.230469 -57.21875 101.777344 -66.332031 C 103.125 -70.046875 107.347656 -74.265625 112.242188 -73.082031 C 112.410156 -73.082031 113.421875 -73.082031 113.761719 -73.253906 C 114.265625 -73.925781 113.929688 -75.109375 114.265625 -75.785156 L 114.265625 -88.273438 C 112.242188 -89.625 109.539062 -89.625 107.515625 -89.792969 Z M 107.515625 -89.792969 "/></g></g></g><g fill="#38b6ff" fill-opacity="1"><g transform="translate(358.964276, 239.049679)"><g><path d="M 22.953125 -123.210938 C 17.722656 -121.523438 13.332031 -119.328125 11.308594 -113.761719 C 10.632812 -111.734375 10.128906 -109.710938 10.632812 -107.851562 C 11.984375 -98.738281 18.398438 -95.195312 25.992188 -94.6875 C 28.691406 -94.6875 31.226562 -94.351562 33.757812 -94.519531 C 40.675781 -95.023438 46.585938 -97.386719 50.128906 -104.308594 C 51.648438 -107.347656 51.816406 -113.761719 48.945312 -116.96875 C 46.585938 -119.5 43.882812 -121.691406 40.339844 -123.042969 C 34.433594 -125.40625 28.691406 -125.070312 22.953125 -123.210938 Z M 49.792969 -88.949219 C 36.964844 -88.613281 23.125 -89.285156 11.476562 -88.441406 C 10.296875 -87.261719 10.128906 -86.25 10.128906 -85.234375 C 10.296875 -82.703125 10.296875 -78.992188 10.464844 -76.628906 C 11.140625 -69.707031 10.800781 -63.800781 10.800781 -57.050781 C 10.800781 -50.296875 10.128906 -43.546875 10.128906 -36.625 C 10.296875 -27.511719 10.972656 -18.566406 10.800781 -9.453125 C 10.800781 -6.414062 10.464844 -3.542969 10.972656 -0.167969 C 23.96875 0.167969 36.964844 0.167969 49.792969 -0.335938 C 51.308594 -1.855469 51.140625 -3.207031 50.972656 -4.558594 C 50.636719 -6.921875 50.464844 -9.113281 50.636719 -11.476562 C 50.636719 -19.746094 50.972656 -27.679688 50.972656 -35.78125 C 50.804688 -44.050781 50.804688 -52.324219 50.804688 -60.59375 C 50.804688 -67.851562 51.140625 -76.289062 51.140625 -83.546875 C 51.308594 -85.234375 51.140625 -87.09375 49.792969 -88.949219 Z M 49.792969 -88.949219 "/></g></g></g><g fill="#38b6ff" fill-opacity="1"><g transform="translate(419.893827, 239.049679)"><g><path d="M 34.433594 -124.730469 C 31.898438 -124.898438 29.367188 -124.730469 26.835938 -124.5625 C 19.074219 -124.226562 14.347656 -120.175781 11.644531 -112.070312 C 11.308594 -110.214844 11.816406 -105.660156 12.488281 -103.800781 C 14.851562 -98.738281 18.058594 -96.882812 23.292969 -95.363281 C 28.863281 -93.675781 35.277344 -94.011719 41.015625 -96.207031 C 44.558594 -97.558594 47.257812 -99.75 49.621094 -102.453125 C 52.492188 -105.660156 52.324219 -111.902344 50.804688 -115.109375 C 47.257812 -121.863281 41.351562 -124.226562 34.433594 -124.730469 Z M 21.097656 -89.117188 C 18.566406 -89.457031 15.867188 -88.78125 13.332031 -89.117188 C 12.488281 -89.285156 11.644531 -88.78125 11.476562 -87.765625 C 11.644531 -80.171875 11.816406 -71.902344 11.644531 -64.304688 C 11.476562 -46.753906 12.152344 -29.199219 12.488281 -11.816406 C 12.660156 -6.078125 12.828125 -0.507812 12.320312 5.230469 C 11.984375 8.777344 9.957031 11.308594 6.75 12.320312 C 3.207031 13.332031 -0.335938 13.503906 -3.882812 12.152344 C -6.078125 11.308594 -8.101562 10.296875 -9.957031 9.113281 C -11.140625 9.453125 -11.644531 9.789062 -11.644531 10.464844 C -11.984375 17.722656 -11.816406 24.980469 -11.476562 32.070312 C -10.296875 33.082031 -9.28125 33.589844 -8.101562 33.757812 C -1.519531 34.601562 4.726562 36.792969 11.476562 37.132812 C 18.230469 37.640625 24.472656 36.964844 30.71875 34.433594 C 37.808594 31.5625 43.378906 27.175781 46.753906 19.917969 C 50.636719 11.308594 52.152344 2.195312 51.984375 -7.089844 C 51.480469 -20.761719 52.324219 -34.433594 51.648438 -48.101562 C 51.308594 -57.386719 51.480469 -66.5 51.308594 -75.785156 C 51.308594 -78.484375 51.140625 -81.859375 51.480469 -84.558594 C 51.648438 -85.910156 51.308594 -87.09375 50.464844 -88.273438 C 47.597656 -88.949219 44.894531 -88.441406 42.027344 -88.441406 C 35.105469 -88.613281 28.019531 -88.273438 21.097656 -89.117188 Z M 21.097656 -89.117188 "/></g></g></g><g fill="#38b6ff" fill-opacity="1"><g transform="translate(481.667275, 239.049679)"><g><path d="M 63.800781 -90.972656 C 56.878906 -91.648438 50.296875 -90.972656 43.378906 -89.285156 C 37.808594 -87.9375 35.613281 -86.585938 31.394531 -84.558594 C 26.332031 -82.199219 22.449219 -78.820312 19.074219 -74.601562 C 12.996094 -67.007812 9.621094 -58.398438 8.101562 -49.117188 C 6.921875 -41.691406 7.765625 -34.261719 10.128906 -27.003906 C 12.660156 -19.746094 17.214844 -14.179688 22.953125 -9.789062 C 28.523438 -5.570312 33.25 -2.699219 40 -0.675781 C 45.402344 1.011719 48.945312 1.011719 54.347656 1.855469 C 59.917969 2.871094 65.65625 2.53125 71.058594 1.855469 C 80.003906 1.179688 85.234375 -0.507812 93.167969 -4.726562 C 97.21875 -6.921875 101.4375 -10.632812 104.816406 -14.347656 C 101.777344 -20.589844 98.0625 -27.847656 96.882812 -27.003906 C 95.023438 -26.160156 93.507812 -23.96875 91.988281 -22.785156 C 86.25 -18.902344 83.210938 -16.539062 76.121094 -15.867188 C 70.382812 -15.191406 64.8125 -15.527344 59.75 -18.230469 C 53.335938 -21.433594 49.453125 -29.199219 50.464844 -36.121094 C 51.984375 -36.289062 53.671875 -36.792969 55.191406 -36.792969 C 63.460938 -36.289062 71.5625 -36.964844 79.835938 -36.457031 C 88.949219 -35.949219 93.507812 -36.792969 102.621094 -36.792969 C 103.800781 -36.792969 105.828125 -36.289062 105.996094 -37.46875 C 106.164062 -37.976562 106.332031 -38.988281 106.332031 -39.496094 C 106.839844 -50.296875 106.164062 -58.738281 101.269531 -67.851562 C 99.917969 -70.214844 98.90625 -72.914062 96.882812 -74.941406 C 86.921875 -84.730469 77.808594 -89.625 63.800781 -90.972656 Z M 65.996094 -70.550781 C 66.667969 -69.875 67.175781 -69.203125 67.511719 -68.355469 C 69.03125 -63.125 70.046875 -57.894531 68.527344 -51.984375 C 62.113281 -52.324219 56.203125 -51.308594 49.792969 -51.984375 C 50.128906 -57.894531 50.804688 -63.632812 54.179688 -68.695312 C 56.878906 -72.914062 62.617188 -73.757812 65.996094 -70.550781 Z M 65.996094 -70.550781 "/></g></g></g><g fill="#38b6ff" fill-opacity="1"><g transform="translate(595.762503, 239.049679)"><g><path d="M 70.046875 -90.128906 C 61.4375 -91.816406 52.828125 -91.480469 44.390625 -89.792969 C 38.820312 -88.78125 33.417969 -87.09375 28.691406 -83.714844 C 22.953125 -79.496094 18.058594 -74.433594 14.347656 -68.355469 C 9.789062 -61.101562 8.269531 -53.335938 7.59375 -45.234375 C 7.089844 -37.46875 9.453125 -30.382812 11.308594 -23.125 C 12.320312 -19.578125 15.023438 -17.214844 17.214844 -14.515625 C 21.605469 -9.453125 26.667969 -5.230469 32.914062 -2.871094 C 42.871094 1.011719 53.167969 3.714844 63.96875 1.6875 C 70.214844 0.507812 76.457031 0 82.199219 -2.195312 C 89.960938 -5.402344 96.207031 -10.972656 102.28125 -16.539062 C 102.453125 -16.710938 102.453125 -17.214844 102.789062 -17.890625 C 99.246094 -21.097656 96.039062 -24.980469 91.988281 -27.679688 C 89.792969 -26.835938 88.441406 -25.316406 86.921875 -23.96875 C 81.523438 -19.746094 75.613281 -16.371094 68.355469 -16.539062 C 64.304688 -16.539062 60.761719 -17.722656 57.554688 -19.917969 C 53.84375 -22.28125 51.648438 -25.992188 50.464844 -29.707031 C 48.777344 -35.277344 47.429688 -41.015625 48.273438 -47.089844 C 48.777344 -50.296875 49.453125 -53.671875 50.128906 -57.050781 C 50.972656 -62.28125 53.503906 -66.667969 57.554688 -70.046875 C 61.269531 -73.082031 65.824219 -74.433594 70.550781 -73.082031 C 76.289062 -71.5625 80.679688 -68.355469 82.199219 -62.113281 C 82.367188 -61.605469 82.703125 -61.269531 83.042969 -60.929688 C 88.78125 -60.085938 94.179688 -61.605469 99.917969 -61.605469 C 99.917969 -62.449219 100.089844 -62.957031 99.917969 -63.460938 C 99.917969 -64.136719 99.917969 -64.980469 99.75 -65.65625 C 97.894531 -74.097656 92.664062 -79.835938 85.742188 -84.222656 C 81.691406 -86.753906 76.964844 -87.9375 72.578125 -89.625 C 71.734375 -89.960938 70.890625 -89.960938 70.046875 -90.128906 Z M 70.046875 -90.128906 "/></g></g></g><g fill="#38b6ff" fill-opacity="1"><g transform="translate(706.144567, 239.049679)"><g><path d="M 45.742188 -111.734375 C 41.691406 -104.476562 36.792969 -99.074219 30.550781 -94.519531 C 23.96875 -89.792969 16.035156 -89.625 8.4375 -87.09375 C 9.113281 -82.027344 7.933594 -76.964844 9.453125 -71.902344 C 13.164062 -71.226562 16.710938 -72.070312 20.085938 -71.394531 C 20.929688 -70.382812 20.761719 -68.863281 20.761719 -67.851562 C 20.761719 -58.398438 20.589844 -48.777344 20.589844 -39.15625 C 20.589844 -35.78125 20.421875 -32.40625 20.421875 -29.03125 C 20.421875 -24.8125 21.433594 -20.253906 22.617188 -16.035156 C 23.125 -13.839844 24.136719 -11.476562 25.65625 -9.621094 C 31.730469 -3.375 38.988281 0 47.597656 1.179688 C 57.21875 2.53125 66.667969 1.6875 75.785156 -1.6875 C 77.976562 -2.363281 80.507812 -2.699219 82.367188 -5.0625 C 81.691406 -9.453125 82.703125 -14.179688 80.679688 -18.734375 C 78.484375 -18.230469 76.796875 -17.722656 75.109375 -17.382812 C 71.5625 -16.878906 68.1875 -17.046875 65.65625 -19.917969 C 63.96875 -21.773438 62.617188 -23.796875 61.773438 -26.332031 C 60.761719 -30.042969 60.929688 -33.757812 60.59375 -37.640625 C 60.085938 -47.089844 61.4375 -56.710938 61.101562 -66.164062 C 61.101562 -67.851562 60.761719 -70.214844 61.945312 -71.734375 C 68.1875 -72.238281 74.601562 -72.238281 80.679688 -72.238281 C 82.199219 -73.253906 82.027344 -74.265625 82.027344 -75.613281 C 82.027344 -77.976562 81.859375 -80.507812 82.027344 -82.871094 C 82.027344 -84.390625 82.199219 -86.25 81.859375 -87.765625 C 80.339844 -88.273438 78.652344 -88.441406 77.132812 -88.273438 C 72.070312 -87.9375 66.839844 -88.78125 61.269531 -88.105469 L 61.269531 -111.566406 C 55.53125 -112.578125 50.464844 -111.566406 45.742188 -111.734375 Z M 45.742188 -111.734375 "/></g></g></g></svg>